<svg width="16" height="16" viewBox="0 0 16 16" fill="none" xmlns="http://www.w3.org/2000/svg">
<path d="M14.7624 1.07986e-05H11.212C10.8854 1.07986e-05 10.5721 0.129973 10.3412 0.361308C10.1102 0.592643 9.98048 0.9064 9.98048 1.23356V2.26581C9.9798 2.49466 10.0242 2.72139 10.1112 2.93302C10.1981 3.14464 10.3259 3.337 10.4873 3.49906C10.6486 3.66112 10.8403 3.7897 11.0513 3.87743C11.2623 3.96517 11.4885 4.01033 11.717 4.01032H15.9991V1.23356C15.9991 1.07113 15.967 0.910302 15.9048 0.760304C15.8426 0.610306 15.7514 0.474091 15.6365 0.359478C15.5216 0.244865 15.3853 0.15411 15.2352 0.0924234C15.0852 0.0307362 14.9245 -0.000668811 14.7624 1.07986e-05Z" fill="#6B7280"/>
<path d="M4.27691 12.1083H0V15.1328C0.00136137 15.3633 0.0937111 15.5838 0.256878 15.7463C0.420045 15.9087 0.64077 15.9999 0.870842 15.9999H5.15291C5.38387 15.9999 5.60537 15.908 5.76869 15.7444C5.932 15.5809 6.02375 15.359 6.02375 15.1277V13.8528C6.02375 13.6233 5.97853 13.396 5.89068 13.184C5.80283 12.972 5.67408 12.7795 5.5118 12.6174C5.34953 12.4554 5.15692 12.327 4.94501 12.2396C4.7331 12.1522 4.50607 12.1076 4.27691 12.1083Z" fill="#6B7280"/>
<path d="M14.2581 7.98968H11.9599H7.27591C6.94197 7.98831 6.62218 7.85448 6.38654 7.61749C6.1509 7.38049 6.01859 7.05964 6.0186 6.72516V1.74452C6.0186 1.51542 5.97355 1.28857 5.88602 1.07692C5.79849 0.865264 5.6702 0.67295 5.50847 0.510957C5.34674 0.348964 5.15474 0.220464 4.94343 0.132793C4.73212 0.0451232 4.50564 0 4.27691 0L1.23155 0C0.904919 0 0.591671 0.129963 0.360711 0.361298C0.129752 0.592633 0 0.906391 0 1.23355L0 6.27613C-1.00589e-06 6.50498 0.0450859 6.73158 0.132677 6.94295C0.220268 7.15431 0.34864 7.34629 0.510438 7.50787C0.672236 7.66945 0.864279 7.79746 1.07556 7.88457C1.28684 7.97167 1.51321 8.01616 1.74168 8.01548H4.75613C4.92279 8.01548 5.08781 8.04852 5.24165 8.11272C5.3955 8.17691 5.53513 8.27098 5.65249 8.38949C5.76986 8.50801 5.86264 8.64863 5.92547 8.80324C5.98831 8.95785 6.01996 9.1234 6.0186 9.29032V10.24C6.01872 10.393 6.04486 10.5448 6.09589 10.689C6.24217 11.0798 6.50523 11.4159 6.8492 11.6514C7.19316 11.887 7.60129 12.0105 8.01793 12.0052H8.81663C9.10371 12.0222 9.37619 12.1377 9.58826 12.3323C9.80034 12.5268 9.93908 12.7886 9.98118 13.0735V14.271C9.98391 14.7305 10.1681 15.1702 10.4934 15.4942C10.8188 15.8182 11.2589 16 11.7177 16H15.9998V9.72903C15.9998 9.50018 15.9547 9.27358 15.8671 9.06222C15.7795 8.85085 15.6511 8.65888 15.4893 8.49729C15.3275 8.33571 15.1355 8.2077 14.9242 8.12059C14.7129 8.03349 14.4866 7.989 14.2581 7.98968Z" fill="#6B7280"/>
</svg>
