<svg width="816" height="348" viewBox="0 0 816 348" fill="none" xmlns="http://www.w3.org/2000/svg">
<path d="M84.5156 131.766C95.2969 110.984 103.734 91.0625 109.828 72C115.922 52.7813 119.359 30.75 120.141 5.90625H166.781C167.094 20.2813 163.578 34.4219 156.234 48.3281C148.891 62.0781 139.672 75.0469 128.578 87.2344C117.641 99.4219 102.953 114.266 84.5156 131.766ZM142.641 265.594H0.609375L0.609375 242.156C3.89062 229.656 9.59375 217.312 17.7187 205.125C26 192.781 35.2187 181.219 45.375 170.438C55.6875 159.656 68.7344 146.766 84.5156 131.766C83.5781 133.484 82.5625 135.516 81.4687 137.859C80.375 140.047 79.125 142.391 77.7187 144.891C68.3437 163.172 61 178.719 55.6875 191.531C50.375 204.344 46.2344 218.328 43.2656 233.484H142.641L142.641 133.172H182.484L182.484 233.484H248.812V265.594H182.484V342L142.641 342V265.594ZM337.172 50.2031C344.047 32.8594 352.797 20.2031 363.422 12.2344C374.047 4.26563 386.625 0.28125 401.156 0.28125C415.688 0.28125 428.188 4.1875 438.656 12C449.125 19.8125 457.562 32.3906 463.969 49.7344C445.531 40.0469 424.594 35.2031 401.156 35.2031C377.094 35.2031 355.766 40.2031 337.172 50.2031ZM463.969 300.281C475.219 271.531 480.844 230.203 480.844 176.297C480.844 120.359 475.219 78.1719 463.969 49.7344C484.594 60.3594 500.609 76.375 512.016 97.7813C523.578 119.188 529.359 145.359 529.359 176.297C529.359 206.297 523.578 231.844 512.016 252.938C500.453 273.875 484.437 289.656 463.969 300.281ZM337.172 299.813C317.016 289.188 301.234 273.406 289.828 252.469C278.578 231.375 272.953 205.984 272.953 176.297C272.953 145.672 278.656 119.656 290.062 98.25C301.469 76.8438 317.172 60.8281 337.172 50.2031C326.391 78.6406 321 120.672 321 176.297C321 231.141 326.391 272.313 337.172 299.813ZM401.156 347.859C386.625 347.859 373.969 344.109 363.187 336.609C352.562 328.953 343.891 316.688 337.172 299.813C355.453 309.656 376.781 314.578 401.156 314.578C424.906 314.578 445.844 309.813 463.969 300.281C457.406 317 448.812 329.109 438.187 336.609C427.562 344.109 415.219 347.859 401.156 347.859ZM651.703 131.766C662.484 110.984 670.922 91.0625 677.016 72C683.109 52.7813 686.547 30.75 687.328 5.90625L733.969 5.90625C734.281 20.2813 730.766 34.4219 723.422 48.3281C716.078 62.0781 706.859 75.0469 695.766 87.2344C684.828 99.4219 670.141 114.266 651.703 131.766ZM709.828 265.594H567.797L567.797 242.156C571.078 229.656 576.781 217.313 584.906 205.125C593.188 192.781 602.406 181.219 612.562 170.438C622.875 159.656 635.922 146.766 651.703 131.766C650.766 133.484 649.75 135.516 648.656 137.859C647.562 140.047 646.312 142.391 644.906 144.891C635.531 163.172 628.188 178.719 622.875 191.531C617.562 204.344 613.422 218.328 610.453 233.484H709.828V133.172H749.672V233.484H816L816 265.594H749.672V342H709.828V265.594Z" fill="url(#paint0_linear_280_810)"/>
<defs>
<linearGradient id="paint0_linear_280_810" x1="392.5" y1="564.138" x2="404.493" y2="-20.8523" gradientUnits="userSpaceOnUse">
<stop stop-color="white"/>
<stop offset="1" stop-color="#E6ECF0"/>
</linearGradient>
</defs>
</svg>
