<svg width="60" height="60" viewBox="0 0 60 60" fill="none" xmlns="http://www.w3.org/2000/svg">
<g clip-path="url(#clip0_478_667)">
<path fill-rule="evenodd" clip-rule="evenodd" d="M22.4998 50H20.1998V35.7H3.7998V33.4H20.1998H22.4998V35.7V50ZM56.1998 33.4V35.7H39.7998V50H37.4998V35.7V33.4H39.7998H56.1998ZM37.4998 2.29999H39.7998V16.6H56.1998V18.9H39.7998H37.4998V16.6V2.29999ZM20.1998 2.29999H22.4998V16.6V18.9H20.1998H3.7998V16.6H20.1998V2.29999Z" fill="#798097"/>
<path fill-rule="evenodd" clip-rule="evenodd" d="M18.5002 26.2C18.1002 43.8 58.3002 45.9 59.8002 29.5C52.5002 47.5 27.1002 35 18.5002 26.2ZM41.5002 26.2C41.9002 8.60001 1.7002 6.5 0.200195 22.9C7.5002 4.8 32.9002 17.3 41.5002 26.2Z" fill="#798097"/>
<path fill-rule="evenodd" clip-rule="evenodd" d="M9 57.5H10.3L10.7 56.3H12.9L13.3 57.5H14.7L12.5 52H11.1L9 57.5ZM12.6 55.4H11L11.6 53.6C11.6 53.5 11.7 53.3 11.8 52.8C11.9 53.2 11.9 53.5 12 53.5L12.6 55.4ZM17.7 57.5H18.8V54.3C18.8 54 18.8 53.7 18.7 53.2C18.9 53.7 19.1 54 19.2 54.2L21.7 57.5H22.9V52H21.8V55.1C21.8 55.4 21.8 55.7 21.9 56.2C21.7 55.7 21.5 55.4 21.4 55.2L18.9 52H17.7V57.5ZM28 57.5H29.1L31.2 51.9H29.9L28.8 55.3C28.7 55.5 28.6 55.9 28.6 56.4C28.5 55.8 28.4 55.5 28.4 55.4L27.3 52H26L28 57.5ZM34.3 57.5H35.5V52H34.3V57.5ZM38.8 56.8C39.1 57.3 39.7 57.7 40.6 57.7C41.8 57.7 42.6 57 42.6 56C42.6 55.3 42.1 54.8 41.2 54.3C40.6 54 40.1 53.9 40.1 53.4C40.1 53 40.4 52.8 40.9 52.8C41.3 52.8 41.6 53 41.7 53.3L42.4 52.6C42 52.1 41.6 51.9 40.9 51.9C39.7 51.9 38.9 52.6 38.9 53.5C38.9 54.3 39.4 54.7 40.2 55.1C41 55.5 41.4 55.6 41.4 56.1C41.4 56.5 41.1 56.8 40.5 56.8C40 56.8 39.6 56.6 39.5 56.1L38.8 56.8ZM45.3 57.5H46.6L47 56.3H49.2L49.7 57.5H51L48.8 52H47.4L45.3 57.5ZM48.9 55.4H47.4L48 53.6C48 53.5 48.1 53.3 48.2 52.8C48.3 53.2 48.3 53.5 48.4 53.5L48.9 55.4Z" fill="#798097"/>
<path d="M30 29.7C31.933 29.7 33.5 28.133 33.5 26.2C33.5 24.267 31.933 22.7 30 22.7C28.067 22.7 26.5 24.267 26.5 26.2C26.5 28.133 28.067 29.7 30 29.7Z" fill="#798097"/>
</g>
<defs>
<clipPath id="clip0_478_667">
<rect width="60" height="60" fill="white"/>
</clipPath>
</defs>
</svg>
