<svg width="374" height="135" viewBox="0 0 374 135" fill="none" xmlns="http://www.w3.org/2000/svg">
<path d="M141.448 39.74C141.448 93.56 36.3278 80.24 28.9478 111.02H141.268V131H0.147819V117.5C3.20782 61.7 116.608 76.82 116.608 39.74C116.608 28.22 109.048 20.48 76.1078 20.48C43.7078 20.48 29.8478 29.66 29.8478 48.92H5.00782C5.54782 13.1 35.4278 0.859991 76.2878 0.859991C116.068 0.859991 141.448 10.76 141.448 39.74ZM218.29 134.6C168.25 134.6 143.95 107.96 143.95 67.64C143.95 27.5 168.25 0.859991 218.29 0.859991C268.15 0.859991 292.45 27.68 292.45 67.64C292.45 107.78 268.15 134.6 218.29 134.6ZM218.29 114.26C249.79 114.26 267.97 97.7 267.97 67.64C267.97 37.58 249.79 21.2 218.29 21.2C186.79 21.2 168.61 37.4 168.61 67.64C168.61 97.88 186.79 114.26 218.29 114.26ZM338.927 91.6H373.227V102.4H338.927V131H327.527V102.4H293.227V91.6H327.527V63H338.927V91.6Z" fill="url(#paint0_linear_730_658)"/>
<defs>
<linearGradient id="paint0_linear_730_658" x1="184" y1="-33" x2="184" y2="194" gradientUnits="userSpaceOnUse">
<stop stop-color="#798097"/>
<stop offset="1" stop-color="#23242E"/>
</linearGradient>
</defs>
</svg>
