<svg width="100" height="60" viewBox="0 0 100 60" fill="none" xmlns="http://www.w3.org/2000/svg">
<g clip-path="url(#clip0_473_136)">
<path d="M70 60H30C13.4 60 0 46.6 0 30C0 13.4 13.4 0 30 0H70C86.6 0 100 13.4 100 30C100 46.6 86.6 60 70 60Z" fill="black"/>
<path d="M40 7.59998H45.3V33H48C48.8 33 49.3 33 49.7 32.9C49.6 34 49.6 34.8 49.6 35.3C49.6 36.4 49.7 37.3 49.9 38C49.5 38 48.9 37.9 48.1 37.9H45.3V52.4H40V7.59998ZM51 28.9C51.7 27.6 52.7 26.1 54.1 24.5L57.9 20.4H65.3L55.7 30C54.7 31 53.7 31.8 52.7 32.2C51.8 32.6 50.7 32.8 49.6 32.9C49.9 31.5 50.3 30.2 51 28.9ZM54.4 45.9C53.1 44.4 52.1 43 51.4 41.8C50.7 40.6 50.2 39.3 49.9 38C51.3 38.1 52.5 38.5 53.7 38.9C54.9 39.4 55.9 40.1 56.8 41.2L67.4 52.5H60L54.4 45.9Z" fill="white"/>
</g>
<defs>
<clipPath id="clip0_473_136">
<rect width="100" height="60" fill="white"/>
</clipPath>
</defs>
</svg>
