<svg width="154" height="42" viewBox="0 0 154 42" fill="none" xmlns="http://www.w3.org/2000/svg">
<path d="M89.0966 17.114C88.6712 16.8012 87.9955 16.601 87.3448 16.6135C86.6316 16.626 85.9559 16.8513 85.4804 17.2267V12.7471H83.2656V27.3621H85.4804V19.7292C85.4804 19.2037 85.9309 18.6156 86.7567 18.5781C87.1196 18.5655 87.6326 18.7282 87.8954 19.1161C88.1707 19.5165 88.1581 20.0671 88.1581 20.6552L88.1456 27.3621H90.3604V20.5801C90.3604 18.5781 90.1101 17.8648 89.0966 17.114Z" fill="#838FA7"/>
<path d="M71.0791 22.1319C71.0791 23.5584 71.029 23.9588 71.0165 24.0839C70.9414 24.8848 70.6036 25.7231 69.6776 25.7231C68.7642 25.7231 68.3888 24.8222 68.3512 24.0464C68.3387 24.0464 68.2887 23.5584 68.2887 22.1319C68.2887 20.7055 68.3387 20.1049 68.3512 20.1049C68.3512 19.2915 68.7767 18.4907 69.6776 18.4907C70.591 18.4907 71.004 19.2915 71.0165 20.0923C71.0165 20.1049 71.0791 20.7055 71.0791 22.1319ZM73.2187 20.4052C72.9059 17.2895 71.1291 16.6138 69.6776 16.6138C67.613 16.6138 66.3617 17.9276 66.1365 20.4052C66.1115 20.6054 66.0864 20.9682 66.0739 22.1319C66.0614 22.9828 66.124 23.6835 66.1365 23.8587C66.2741 26.1736 67.6005 27.5875 69.6776 27.5875C71.7547 27.5875 73.0811 26.1486 73.2313 23.8587C73.2438 23.696 73.2813 22.9828 73.2813 22.1319C73.2813 21.744 73.2563 20.7055 73.2187 20.4052Z" fill="#838FA7"/>
<path d="M94.062 20.8181C94.0745 20.3301 94.0745 20.23 94.087 20.0923C94.1496 19.2164 94.5375 18.4907 95.4384 18.4907C96.502 18.4782 96.7523 19.5167 96.7898 20.0923C96.8148 20.4052 96.8273 20.6054 96.8273 20.8181H94.062ZM96.8023 23.7461C96.8023 23.7461 96.8023 23.9088 96.7773 24.109C96.7147 24.622 96.5145 25.7231 95.4384 25.7231C94.5125 25.7231 94.1621 24.8848 94.0995 24.0589C94.087 23.8212 94.0495 23.5584 94.0495 22.6575H98.992C98.992 22.6575 98.9921 21.9192 98.9795 21.4813C98.9795 21.3061 98.967 21.0183 98.9295 20.4052C98.8544 19.4667 98.504 18.4406 97.966 17.79C97.3529 17.0142 96.477 16.6138 95.4384 16.6138C93.4364 16.6138 92.1851 17.9151 91.9473 20.4052C91.9223 20.6304 91.8848 20.9432 91.8848 22.1319C91.8848 22.9828 91.9348 23.696 91.9473 23.8587C92.0725 26.136 93.4238 27.5875 95.4384 27.5875C97.4405 27.5875 98.7793 26.1736 98.9295 23.7461H96.8023Z" fill="#838FA7"/>
<path d="M59.0646 5.28934H95.0766L108.841 21.4059L95.0766 37.2972H59.0646L45.238 21.3558L59.0646 5.28934ZM95.94 3.5H58.1887L42.873 21.2932L58.2013 38.9739H95.94L111.206 21.3558L95.94 3.5Z" fill="#838FA7"/>
<path d="M59.514 14.7363H60.5525C61.6912 14.7363 62.3168 15.3369 62.3419 16.413C62.3419 16.5006 62.3544 16.5882 62.3544 16.7509C62.3544 16.9511 62.3544 17.0136 62.3419 17.1012C62.2793 17.7394 61.9915 18.853 60.6651 18.853H59.514V14.7363ZM64.7568 26.4483L64.5316 22.8696C64.4315 21.268 64.0186 20.317 63.1802 19.829C63.7808 19.4661 64.5566 18.5777 64.5441 16.7133C64.5441 13.8854 62.7798 12.8844 60.7027 12.8594H57.3242V27.3617H59.5014L59.514 20.7299H60.7277C61.4284 20.7299 62.2167 21.3431 62.3419 23.0698L62.5671 26.4608C62.5921 26.9488 62.6797 27.3617 62.6797 27.3617H64.8695C64.8695 27.3617 64.7693 26.9613 64.7568 26.4483Z" fill="#838FA7"/>
<path d="M79.686 23.646C79.686 23.8086 79.6735 23.9463 79.661 24.0464C79.5985 24.8597 79.3232 25.7231 78.3221 25.7231C77.4087 25.7231 77.0458 24.7847 76.9708 24.0965C76.9332 23.6835 76.9457 23.3582 76.9332 22.1319C76.9207 20.7055 76.9708 20.3301 76.9958 20.1049C77.0708 19.1914 77.4212 18.4907 78.3221 18.4907C79.2606 18.4782 79.6485 19.2915 79.661 20.0923C79.661 20.1049 79.686 20.2925 79.6986 20.718H81.8883C81.8883 20.5678 81.8758 20.4427 81.8758 20.3801C81.6255 17.352 79.7736 16.6138 78.3221 16.6138C76.2575 16.6138 75.0062 17.9276 74.781 20.4052C74.756 20.6054 74.731 20.9682 74.7184 22.1319C74.7059 22.9828 74.7685 23.6835 74.781 23.8587C74.9186 26.1736 76.245 27.5875 78.3221 27.5875C80.4744 27.6 81.6631 26.2862 81.8758 23.8587C81.8758 23.7711 81.8883 23.7086 81.8883 23.646H79.686Z" fill="#838FA7"/>
</svg>
