<svg width="154" height="42" viewBox="0 0 154 42" fill="none" xmlns="http://www.w3.org/2000/svg">
<mask id="mask0_280_599" style="mask-type:luminance" maskUnits="userSpaceOnUse" x="92" y="4" width="26" height="35">
<path d="M92.6143 4.16722C93.0467 7.0514 97.4699 10.1776 102.209 10.8988C107.515 11.7026 110.809 11.0719 110.809 11.0719C110.809 11.0719 110.053 8.28159 107.859 8.27083C104.387 8.25687 101.94 7.90511 101.94 7.90511C94.5337 6.78454 92.6143 4.16722 92.6143 4.16722ZM104.81 20.6856C104.81 28.5517 101.381 34.3498 96.9489 38.252C104.433 36.68 110.161 28.4034 110.161 19.496C110.169 18.771 110.157 18.039 110.126 17.393L115.911 15.4164C116.643 15.1607 117.111 14.7624 117.113 14.0624C117.115 13.5902 117.117 13.3459 117.117 13.3459C113.99 13.2887 102.651 12.9135 102.651 12.9135C103.713 14.5847 104.81 17.4531 104.81 20.6856Z" fill="white"/>
</mask>
<g mask="url(#mask0_280_599)">
<path d="M92.6143 4.16722C93.0467 7.0514 97.4699 10.1776 102.209 10.8988C107.515 11.7026 110.809 11.0719 110.809 11.0719C110.809 11.0719 110.053 8.28159 107.859 8.27083C104.387 8.25687 101.94 7.90511 101.94 7.90511C94.5337 6.78454 92.6143 4.16722 92.6143 4.16722ZM104.81 20.6856C104.81 28.5517 101.381 34.3498 96.9489 38.252C104.433 36.68 110.161 28.4034 110.161 19.496C110.169 18.771 110.157 18.039 110.126 17.393L115.911 15.4164C116.643 15.1607 117.111 14.7624 117.113 14.0624C117.115 13.5902 117.117 13.3459 117.117 13.3459C113.99 13.2887 102.651 12.9135 102.651 12.9135C103.713 14.5847 104.81 17.4531 104.81 20.6856Z" fill="#838FA7"/>
</g>
<mask id="mask1_280_599" style="mask-type:luminance" maskUnits="userSpaceOnUse" x="36" y="3" width="82" height="36">
<path d="M36.748 3.49991H117.496V38.2563H36.748V3.49991Z" fill="white"/>
</mask>
<g mask="url(#mask1_280_599)">
<path d="M37.4072 32.354V31.3186C38.4238 30.9427 39.173 30.0341 39.173 27.9462V18.7757H40.7427V27.8404C40.7427 30.6056 39.1188 32.1578 37.4072 32.354Z" fill="#838FA7"/>
<path d="M48.2695 22.9339C45.8446 23.2364 44.3983 23.7542 44.3983 25.6988C44.3983 27.0914 45.2548 27.6609 46.6834 27.6609C47.2898 27.6609 47.8788 27.5538 48.2695 27.3394V22.9339ZM46.5579 28.5718C44.0603 28.5718 42.9004 27.4833 42.9004 25.7348C42.9004 23.182 45.2915 22.4343 48.2695 22.1306V21.5428C48.2695 20.0612 47.3777 19.6326 46.1478 19.6326C45.2186 19.6326 44.3638 19.9719 43.8274 20.2386L43.4542 19.3119C44.0061 19.0071 45.0769 18.5986 46.3972 18.5986C48.1816 18.5986 49.7518 19.3658 49.7518 21.7189V27.8936C49.0202 28.3043 47.8955 28.5718 46.5579 28.5718Z" fill="#838FA7"/>
<path d="M57.6928 28.3936V21.4884C57.6928 20.5975 57.3174 19.6142 55.6762 19.6142C54.7831 19.6142 54.3559 19.74 53.856 19.954V28.3936H52.2861V19.2768C53.1403 18.8657 54.2666 18.5984 55.8009 18.5984C58.4761 18.5984 59.2633 20.0785 59.2633 21.453V28.3936H57.6928Z" fill="#838FA7"/>
<path d="M63.6681 28.5347C62.6324 28.5347 61.7238 28.2667 61.2061 27.876L61.6338 26.8394C61.9733 27.1256 62.6501 27.4116 63.5076 27.4116C64.577 27.4116 65.2916 26.6791 65.2916 25.7523C65.2916 24.7537 64.7556 24.3079 63.7033 23.9168C61.8308 23.2187 61.4539 22.2202 61.4539 21.221C61.4539 19.7931 62.5792 18.5803 64.3285 18.5803C65.3088 18.5803 66.0766 18.9022 66.5758 19.2396L66.1657 20.1843C65.8794 19.9728 65.3088 19.6514 64.5599 19.6514C63.5076 19.6514 62.9537 20.3468 62.9537 21.1682C62.9537 22.095 63.6311 22.5423 64.5599 22.8988C66.4334 23.612 66.8976 24.6113 66.8976 25.7184C66.8976 27.1802 65.6307 28.5347 63.6681 28.5347Z" fill="#838FA7"/>
<path d="M70.6987 28.5347C69.6644 28.5347 68.7538 28.2667 68.2373 27.876L68.6646 26.8394C69.0052 27.1256 69.6822 27.4116 70.5388 27.4116C71.6076 27.4116 72.3235 26.6791 72.3235 25.7523C72.3235 24.7537 71.7868 24.3079 70.7349 23.9168C68.862 23.2187 68.4864 22.2202 68.4864 21.221C68.4864 19.7931 69.6098 18.5803 71.3596 18.5803C72.34 18.5803 73.1084 18.9022 73.6078 19.2396L73.1963 20.1843C72.9115 19.9728 72.34 19.6514 71.5905 19.6514C70.5388 19.6514 69.9854 20.3468 69.9854 21.1682C69.9854 22.095 70.6628 22.5423 71.5905 22.8988C73.4654 23.612 73.9276 24.6113 73.9276 25.7184C73.9276 27.1802 72.6615 28.5347 70.6987 28.5347Z" fill="#838FA7"/>
<path d="M79.4729 19.614C78.0816 19.614 77.0455 20.7397 77.0827 23.3457L81.6858 22.647C81.6858 20.4709 80.8473 19.614 79.4729 19.614ZM77.1352 24.1828C77.3133 26.3589 78.3312 27.4301 80.0617 27.4301C81.1506 27.4301 81.9346 27.1627 82.4349 26.8764L82.8453 27.9117C82.2567 28.2665 81.2385 28.5718 79.9359 28.5718C77.4208 28.5718 75.6543 26.9836 75.6543 23.5574C75.6543 20.2939 77.2615 18.5981 79.526 18.5981C81.8282 18.5981 83.2199 20.0969 83.1841 23.3071L77.1352 24.1828Z" fill="#838FA7"/>
<path d="M90.7502 28.3936V21.4884C90.7502 20.5975 90.3749 19.6142 88.7344 19.6142C87.8415 19.6142 87.4144 19.74 86.914 19.954V28.3936H85.3438V19.2768C86.2007 18.8657 87.3239 18.5984 88.8585 18.5984C91.534 18.5984 92.3198 20.0785 92.3198 21.453V28.3936H90.7502Z" fill="#838FA7"/>
</g>
</svg>
