<svg width="154" height="42" viewBox="0 0 154 42" fill="none" xmlns="http://www.w3.org/2000/svg">
<path d="M43.9911 15.0674C44.0559 15.0674 44.0991 15.1098 44.0559 15.1735C42.0254 19.5031 39.7572 23.6841 37.6403 27.1436C37.6187 27.186 37.5539 27.2285 37.4891 27.2285H33.8601C33.7953 27.2285 33.7737 27.1436 33.8169 27.1011C34.8106 25.6367 35.9986 23.5356 35.9986 23.5356C35.9986 23.5356 33.6009 19.3758 31.4192 15.1735C31.3976 15.1098 31.4192 15.0674 31.484 15.0674H35.1562C35.221 15.0674 35.2426 15.1098 35.2426 15.1523C35.977 16.8077 37.4243 19.4606 37.8779 20.2884C38.31 19.5455 39.498 17.1685 40.3405 15.1523C40.3621 15.0886 40.3837 15.0886 40.4485 15.0886H43.9911M20.9426 19.7366L25.414 15.1098C25.4573 15.0674 25.5005 15.0249 25.6085 15.0249H29.6263C29.6911 15.0249 29.7343 15.0037 29.7127 14.94C29.7127 14.94 29.6263 13.3907 27.8982 12.1385C26.3645 11.0137 24.6148 10.3558 21.8715 10.759C17.5512 11.4169 13.6198 14.7278 12.5613 16.9775C11.9133 18.3358 11.4813 20.352 12.4749 22.3683C13.339 24.1086 14.7863 25.0637 15.8447 25.2971C16.4711 25.4245 16.9896 25.4032 16.9896 25.4032V15.1311C16.9896 15.1098 17.0112 15.0462 17.0544 15.0462H20.8346C20.8778 15.0462 20.8994 15.0886 20.8994 15.1311V19.7366H20.9426ZM50.4498 25.0424C52.7396 25.0424 53.3228 23.1748 53.3228 21.1585C53.3228 19.1423 52.7396 17.2746 50.4498 17.2746C48.1601 17.2746 47.5553 19.1423 47.5553 21.1585C47.5553 23.1748 48.1385 25.0424 50.4498 25.0424ZM57.0382 21.1585C57.0382 26.5281 53.258 27.6317 50.4282 27.6317C47.6201 27.6317 43.8399 26.5069 43.8183 21.1585C43.8183 15.8102 47.5985 14.6854 50.4282 14.6854C53.258 14.6854 57.0382 15.789 57.0382 21.1585ZM66.0891 18.0599L67.1476 27.1223C67.1692 27.186 67.2124 27.2285 67.2988 27.2285H71.9646C72.051 27.2285 72.0726 27.2072 72.0942 27.1223C72.9151 23.7053 73.6495 19.5031 74.3192 15.1523C74.3192 15.0886 74.2976 15.0674 74.2544 15.0674H70.755C70.7118 15.0674 70.6902 15.0886 70.6686 15.1311C70.6686 15.1311 70.1285 20.819 69.5237 24.5967C69.5021 24.7029 69.4157 24.6816 69.4157 24.5967L68.2492 15.1311C68.2492 15.0886 68.206 15.0674 68.1628 15.0674H63.9074C63.8642 15.0674 63.821 15.0886 63.7994 15.1523L62.6329 24.5967C62.6113 24.6816 62.5249 24.6816 62.5249 24.5967C61.9201 20.8402 61.4449 15.1311 61.4449 15.1311C61.4449 15.0674 61.4016 15.0674 61.3584 15.0674H57.8591C57.8159 15.0674 57.7943 15.0886 57.7943 15.1523C58.4423 19.5031 59.1983 23.769 59.976 27.1223C59.9976 27.2072 60.0624 27.2285 60.1272 27.2285H64.7498C64.8362 27.2285 64.8794 27.186 64.901 27.1223L65.9595 18.0599C65.9811 17.975 66.0675 17.975 66.0891 18.0599ZM82.29 24.9575C82.29 24.9575 81.7068 25.0637 80.6267 25.0637C79.309 25.0637 78.2938 24.4694 78.2938 23.3233C78.2938 22.1773 79.3307 21.8377 80.5403 21.7952C81.7284 21.7528 82.29 21.8801 82.29 21.8801V24.9575ZM76.1769 17.8264C76.1769 17.8689 76.1985 17.8901 76.2633 17.8689C76.3281 17.8477 77.689 17.3383 79.4171 17.3383C81.21 17.3383 82.3764 17.593 82.3332 19.4819C82.0524 19.4607 81.0371 19.3758 79.8491 19.4394C78.5314 19.5031 74.5784 19.8427 74.5784 23.4931C74.5784 27.1436 78.877 27.568 80.9723 27.568C83.3485 27.568 85.6598 26.9738 85.6598 26.9738C85.7246 26.9525 85.7678 26.9101 85.7678 26.8464V19.5455C85.7678 16.8502 84.5581 14.8127 80.2379 14.8127C78.4018 14.8127 76.2201 15.1947 76.0041 15.2584C75.9609 15.2796 75.9609 15.2796 75.9609 15.3221L76.1769 17.8264ZM103.049 27.1436C101.99 25.3608 100.197 23.0899 97.6485 20.4369C97.6485 20.4369 102.574 15.216 102.617 15.1947C102.66 15.1523 102.638 15.0886 102.552 15.0886H98.5125C98.4477 15.0886 98.4045 15.1098 98.3613 15.1523L94.3867 19.4394V15.1311C94.3867 15.1098 94.3435 15.0674 94.3219 15.0674H90.7793C90.7577 15.0674 90.7145 15.1098 90.7145 15.1311V27.1436C90.7145 27.1648 90.7577 27.2072 90.7793 27.2072H94.3219C94.3435 27.2072 94.3867 27.1648 94.3867 27.1436V21.8165C95.5099 22.8352 97.4757 25 98.9445 27.1223C98.9661 27.1648 99.0093 27.2072 99.0957 27.2072H103.006C103.07 27.2284 103.07 27.2072 103.049 27.1436ZM16.9896 27.2921C16.7952 28.5868 19.5817 31.1548 24.7012 31.3458C28.179 31.4944 30.1447 30.4332 31.4192 28.8202C33.5577 26.1036 32.7585 23.3021 31.808 21.6467C31.052 20.3308 29.2375 18.357 27.4878 17.4869L24.442 20.6492C24.442 20.6492 28.2222 24.2784 30.1015 27.2072C30.1447 27.2709 30.1231 27.2921 30.0151 27.2921H25.7597C25.6733 27.2921 25.6517 27.2709 25.5869 27.186C25.5437 27.1223 23.686 24.5331 20.9426 22.0287V27.186C20.9426 27.2284 20.8994 27.2921 20.8346 27.2921H16.9896ZM107.779 27.2285C107.801 27.2285 107.844 27.2072 107.844 27.1648V15.1311C107.844 15.1098 107.823 15.0674 107.779 15.0674H104.215C104.194 15.0674 104.15 15.0886 104.15 15.1311V27.1648C104.15 27.186 104.172 27.2285 104.215 27.2285H107.779ZM126.788 27.2285C126.81 27.2285 126.853 27.2072 126.853 27.1648V15.1311C126.853 15.1098 126.832 15.0674 126.788 15.0674H123.224C123.203 15.0674 123.159 15.0886 123.159 15.1311V27.1648C123.159 27.186 123.181 27.2285 123.224 27.2285H126.788ZM115.297 17.3807C114.346 17.3807 113.655 17.5081 113.655 17.5081V20.4794C114.109 20.5855 114.908 20.6492 115.664 20.5643C116.744 20.4582 117.889 20.1398 117.889 18.8876C117.889 17.6142 116.312 17.3807 115.297 17.3807ZM122.101 27.1648C122.123 27.2072 122.123 27.2497 122.058 27.2497H118.278C118.191 27.2497 118.17 27.2072 118.126 27.1648C116.982 25.573 115.189 23.6629 113.655 22.4319V27.186C113.655 27.2284 113.633 27.2497 113.612 27.2497H110.156C110.091 27.2497 110.091 27.2284 110.091 27.186V15.3433C110.091 15.2796 110.112 15.2584 110.156 15.2372C110.156 15.2372 112.899 14.8339 115.232 14.8339C118.234 14.8339 121.518 15.4919 121.518 18.6966C121.518 20.7977 119.595 21.8377 117.867 22.1985C119.358 23.5356 121.172 25.7004 122.101 27.1648ZM137.956 24.618C137.956 24.6816 137.848 24.7029 137.827 24.618C136.811 19.9063 135.58 16.2559 135.213 15.1523C135.191 15.0886 135.148 15.0674 135.083 15.0674H129.165C129.143 15.0674 129.1 15.0886 129.1 15.1311V27.1648C129.1 27.186 129.121 27.2285 129.165 27.2285H132.621C132.642 27.2285 132.686 27.2072 132.686 27.1648V18.0599C132.686 17.9962 132.772 17.975 132.794 18.0599C134.09 21.7528 135.256 26.5281 135.364 27.1436C135.386 27.2072 135.407 27.2285 135.472 27.2285H141.477C141.499 27.2285 141.542 27.2072 141.542 27.1648V15.1311C141.542 15.1098 141.521 15.0674 141.477 15.0674H138.021C138 15.0674 137.956 15.0886 137.956 15.1311V24.618Z" fill="#838FA7"/>
</svg>
