<svg width="154" height="42" viewBox="0 0 154 42" fill="none" xmlns="http://www.w3.org/2000/svg">
<path d="M26.9147 28.5959L28.6933 23.8797L30.3584 28.6333H26.9147V28.5959ZM32.0992 33.387H33.7265L29.488 21.9707H27.8986L23.5088 33.387H25.1361L26.4227 29.8686H30.8126L32.0992 33.387ZM39.7815 30.954C39.7815 31.8898 39.0246 32.3764 37.7001 32.3764C36.6405 32.3764 35.9593 32.077 35.543 31.4032L33.9914 31.6652C34.5969 32.9004 35.8457 33.4619 37.6244 33.4619C40.0464 33.4619 41.2952 32.1518 41.2952 30.7295C41.2952 28.9328 39.5922 28.4462 37.6622 28.0345C36.7161 27.8473 35.6187 27.5104 35.6187 26.687C35.6187 26.0881 36.1863 25.4143 37.3595 25.4143C38.5326 25.4143 39.2517 26.2004 39.3652 26.5372L40.7275 25.9758C40.0842 24.778 38.8354 24.3288 37.5487 24.3288C35.5052 24.3288 34.1806 25.302 34.1806 26.8741C34.1806 28.6708 35.7322 29.0077 37.246 29.3445C38.5326 29.6814 39.7815 29.9808 39.7815 30.954ZM44.5497 21.9707L43.036 22.607V24.7031H41.6358V25.9009H43.036V31.4781C42.9982 32.601 42.9982 33.4245 44.7389 33.4245C45.3066 33.4245 45.9121 33.3122 46.177 33.2747V32.1144C45.8743 32.1893 45.4958 32.3015 45.2309 32.3015C44.5876 32.3015 44.5876 31.8524 44.5876 30.8418V25.9009H46.177V24.7031H44.5876V21.9707H44.5497ZM47.4637 24.7031V33.387H48.9396V29.382C48.9396 28.6333 48.9017 27.7724 49.318 27.1361C49.81 26.3501 50.4911 26.0881 51.967 26.0506V24.5534C51.3615 24.5908 49.81 24.5908 48.9774 26.2378V24.7031H47.4637ZM60.6332 21.9707V23.3931H67.2179L60.671 31.9272V33.4245H69.1101V32.0395H62.4118L68.9587 23.4305V22.0081H60.6332V21.9707ZM78.3439 24.7031V33.387H79.8198V28.4462C79.8198 27.8099 79.8198 27.1361 80.4631 26.4998C80.9173 26.0506 81.4849 25.8261 82.1283 25.8261C82.923 25.8261 83.7555 26.2004 84.0204 27.0238C84.0961 27.3233 84.0961 27.5853 84.0961 28.4462V33.3496H85.572V28.259C85.572 27.5104 85.572 26.9864 85.4206 26.4998C85.0044 25.0774 83.642 24.516 82.5445 24.516C82.0147 24.516 80.6145 24.6283 79.8198 26.0506V24.7406H78.3439V24.7031ZM101.201 31.2909C100.899 31.8898 100.331 32.4138 99.1578 32.4138C98.1739 32.4138 96.5088 31.8149 96.5088 28.9328C96.5088 28.1467 96.6601 25.4517 99.0821 25.4517C100.293 25.4517 100.861 26.1255 101.126 26.687L102.488 26.1255C101.655 24.7406 100.104 24.4037 99.0064 24.4037C96.206 24.4037 94.8436 26.6121 94.8436 29.0825C94.8436 31.2161 96.0168 33.5742 99.1199 33.5742C100.899 33.5742 101.92 32.7133 102.45 31.8524L101.201 31.2909ZM71.2294 28.1467H75.8841C75.7706 25.8635 74.446 25.4892 73.5378 25.4892C72.289 25.4892 71.4186 26.3875 71.2294 28.1467ZM77.0951 31.7401C76.6031 32.601 75.6192 33.5368 73.727 33.5368C71.1537 33.5368 69.6399 31.8149 69.6399 28.8954C69.6399 25.6389 71.797 24.4037 73.6513 24.4037C75.2786 24.4037 76.7923 25.302 77.3221 27.473C77.4735 28.2216 77.4735 28.8579 77.4735 29.2322H71.1915C71.1537 30.692 71.7592 32.5261 73.8405 32.4887C74.6731 32.4887 75.2786 32.077 75.657 31.5155L77.0951 31.7401ZM87.994 28.1467H92.6487C92.5352 25.8635 91.2107 25.4892 90.3024 25.4892C89.0158 25.4892 88.1454 26.3875 87.994 28.1467ZM93.8219 31.7401C93.3299 32.601 92.346 33.5368 90.4538 33.5368C87.8804 33.5368 86.3667 31.8149 86.3667 28.8954C86.3667 25.6389 88.5238 24.4037 90.3781 24.4037C92.0054 24.4037 93.5191 25.302 94.0489 27.473C94.2003 28.2216 94.2003 28.8579 94.2003 29.2322H87.8805C87.8426 30.692 88.4481 32.5261 90.5295 32.4887C91.3621 32.4887 91.9675 32.077 92.346 31.5155L93.8219 31.7401ZM110.587 33.387H109.035C109.035 33.387 108.884 32.7881 108.846 32.1144C108.392 32.5636 107.559 33.4993 105.894 33.4993C104.191 33.4993 102.942 32.4887 102.942 31.0289C102.942 30.5797 103.056 30.0931 103.321 29.7188C103.813 28.9702 104.759 28.4088 107.37 28.1842L108.77 28.0719V27.8473C108.77 26.949 108.77 25.4517 106.802 25.4517C105.591 25.4517 105.137 26.0506 105.024 26.5747L103.661 26.0132C103.699 25.9758 103.699 25.9009 103.737 25.8635C104.267 24.9277 105.288 24.3288 106.764 24.3288C107.559 24.3288 108.619 24.516 109.3 25.0774C110.284 25.8261 110.246 27.2484 110.246 27.2484L110.322 31.7027C110.322 31.7401 110.397 33.0127 110.587 33.387ZM108.543 30.9915C108.77 30.5049 108.77 30.3177 108.77 29.0451C108.202 29.1199 107.408 29.2322 106.462 29.4568C104.834 29.7937 104.569 30.43 104.569 31.0289C104.569 31.7401 105.137 32.3015 106.235 32.3015C107.256 32.3015 108.127 31.8898 108.543 30.9915ZM59.6114 33.387H58.0977C58.0977 33.387 57.9463 32.7881 57.9085 32.1144C57.4543 32.5636 56.6218 33.4993 54.9567 33.4993C53.2537 33.4993 51.967 32.4887 51.967 31.0289C51.967 30.5797 52.0806 30.0931 52.3455 29.7188C52.8374 28.9702 53.7835 28.4088 56.3947 28.1842L57.7949 28.0719V27.8473C57.7949 26.949 57.7949 25.4517 55.8271 25.4517C54.5782 25.4517 54.162 26.0506 54.0484 26.5747L52.6861 26.0132C52.7239 25.9758 52.7239 25.9009 52.7618 25.8635C53.2916 24.9277 54.3133 24.3288 55.7892 24.3288C56.5839 24.3288 57.6436 24.516 58.3247 25.0774C59.3087 25.8261 59.2708 27.2484 59.2708 27.2484L59.3087 31.7027C59.3465 31.7401 59.4222 33.0127 59.6114 33.387ZM57.6057 30.9915C57.8328 30.5049 57.8328 30.3177 57.8328 29.0451C57.2651 29.1199 56.4704 29.2322 55.5243 29.4568C53.8971 29.7937 53.6322 30.43 53.6322 31.0289C53.6322 31.7401 54.1998 32.3015 55.2973 32.3015C56.2812 32.3015 57.1516 31.8898 57.6057 30.9915Z" fill="#838FA7"/>
<path d="M120.161 26.0879C119.934 26.2376 119.707 26.3873 119.48 26.537C116.831 25.0772 111.154 22.2699 110.662 22.0454C110.133 21.7833 109.224 21.409 109.338 20.5481C109.489 19.3504 111.646 16.6928 112.555 15.5699C117.474 9.65584 119.669 7.82174 121.107 8.00889C122.659 8.19605 123.529 9.80556 123.643 17.2168C122.772 16.9548 121.826 16.6928 120.804 16.4308C120.729 15.3453 120.502 13.7358 120.426 13.1743C120.35 12.538 120.199 12.3134 119.972 12.276C119.669 12.2385 118.95 12.9123 118.307 13.586C118.004 13.8855 117.171 14.709 116.263 15.6447C115.506 15.6073 114.977 15.757 114.712 16.1313C114.485 16.4308 114.447 16.8425 114.56 17.3665C114.068 17.8531 113.652 18.2649 113.349 18.5643C112.327 19.5749 111.23 20.3984 111.192 20.8102C111.154 21.147 111.646 21.4839 112.403 21.9331C114.144 22.8688 118.572 25.2644 120.161 26.0879ZM127.049 18.6766C125.308 18.0777 121.031 16.5056 116.528 15.9067C114.977 15.7196 114.371 16.2436 114.977 17.7034C115.62 19.1632 117.247 21.5588 118.95 23.3929C120.653 25.1895 122.507 25.6761 123.113 22.9063C123.151 22.794 123.151 22.7191 123.189 22.6068C123.34 21.8956 123.453 21.1845 123.491 20.5856C122.734 20.2487 121.864 19.8744 121.031 19.5375C121.069 20.1738 121.145 21.2967 121.183 22.1202C121.183 22.2325 121.183 22.3448 121.183 22.4197C121.221 23.8046 120.767 23.8046 119.972 23.2431C119.064 22.6068 116.225 18.9012 115.885 17.2542C115.885 17.142 115.923 17.142 115.96 17.1794C115.998 17.1794 115.998 17.1794 116.036 17.2168C116.679 17.4788 118.799 18.3023 120.956 19.2006C121.826 19.5749 122.697 19.9118 123.453 20.2861C124.21 20.623 124.891 20.9599 125.421 21.2219C126.367 21.7085 126.708 22.0454 126.33 22.4571C124.4 24.4035 117.588 27.1733 115.241 30.617C115.241 30.617 115.241 30.617 115.204 30.6544C115.166 30.6918 115.166 30.7293 115.128 30.7667C115.128 30.7667 115.128 30.8041 115.09 30.8041C114.977 31.0287 114.825 31.3656 114.749 31.8147C114.636 32.5634 115.052 33.2371 116.15 33.5366C116.415 33.6114 116.717 33.6863 117.058 33.7237C117.134 33.7237 117.171 33.7237 117.247 33.7237C119.329 33.836 124.778 32.6382 126.405 31.927C128.108 31.1784 127.616 30.4298 127.124 30.0555C126.746 29.7561 124.854 28.708 123.945 28.2214C123.68 28.3711 123.491 28.4834 123.264 28.6706C124.816 29.6063 125.459 30.0929 125.838 30.3549C125.989 30.4672 125.913 30.5795 125.686 30.617C125.648 30.617 125.573 30.617 125.535 30.617C124.059 30.7293 121.221 30.9164 119.896 30.9913C119.707 30.9913 119.48 31.0287 119.366 31.0287C119.707 30.7293 120.048 30.4672 120.237 30.3175C123.075 28.3337 127.805 25.5638 129.206 24.3661C130.265 23.4303 133.066 20.7353 127.049 18.6766Z" fill="#838FA7"/>
</svg>
