<svg width="154" height="42" viewBox="0 0 154 42" fill="none" xmlns="http://www.w3.org/2000/svg">
<g clip-path="url(#clip0_280_590)">
<path d="M126.592 17.8852C126.592 18.4906 126.318 18.7746 125.84 18.7746C125.362 18.7746 125.088 18.4906 125.088 17.8852C125.088 17.2798 125.362 16.9771 125.84 16.9771C126.318 16.9771 126.592 17.2798 126.592 17.8852ZM139.831 24.0813C139.831 25.9498 139.186 26.5553 138.127 26.5553C137.067 26.5553 136.423 25.9461 136.423 24.0813V23.0723C136.423 21.2037 137.071 20.5983 138.127 20.5983C139.183 20.5983 139.831 21.2075 139.831 23.0723V24.0813ZM138.275 19.4996C137.453 19.4996 136.827 19.9032 136.497 20.5983H136.438V17.1303H135.204V27.5082H136.438V26.559H136.497C136.827 27.2504 137.453 27.654 138.275 27.654C140.201 27.654 141.083 26.3198 141.083 24.156V23.0013C141.083 20.8375 140.201 19.5033 138.275 19.5033M132.745 24.085C132.745 25.9536 132.096 26.559 131.041 26.559C129.985 26.559 129.337 25.9498 129.337 24.085V23.076C129.337 21.2075 129.981 20.602 131.041 20.602C132.1 20.602 132.745 21.2112 132.745 23.076V24.085ZM131.185 19.5033C130.363 19.5033 129.737 19.9069 129.407 20.602H129.348V17.134H128.114V27.512H129.348V26.5627H129.407C129.737 27.2541 130.363 27.6577 131.185 27.6577C133.111 27.6577 133.993 26.3236 133.993 24.1598V23.005C133.993 20.8412 133.111 19.5071 131.185 19.5071M125.225 19.6566H126.458V27.5157H125.225V19.6566ZM122.406 19.6566H123.639V27.5157H122.406V26.5067H122.347C122.054 27.142 121.42 27.6614 120.435 27.6614C118.979 27.6614 118.083 26.8318 118.083 24.9782V19.6566H119.331V24.8026C119.331 26.062 119.846 26.6113 120.772 26.6113C121.698 26.6113 122.402 26.0022 122.402 24.4774V19.6603L122.406 19.6566ZM113.812 26.5665C112.752 26.5665 112.108 25.9573 112.108 24.0925V23.0835C112.108 21.2149 112.756 20.6095 113.812 20.6095C114.868 20.6095 115.516 21.2187 115.516 23.0835V24.0925C115.516 25.9611 114.868 26.5665 113.812 26.5665ZM115.501 20.6058H115.442C115.108 19.9107 114.475 19.5071 113.664 19.5071C111.737 19.5071 110.856 20.8412 110.856 23.005V24.1598C110.856 26.3236 111.737 27.6577 113.664 27.6577C114.471 27.6577 115.108 27.2541 115.442 26.5627H115.501V30.0308H116.734V19.6528H115.501V20.602V20.6058ZM109.922 24.7727C109.922 26.6263 108.659 27.6652 106.718 27.6652C104.896 27.6652 103.395 26.7758 103.206 24.7876H104.573C104.736 25.9573 105.559 26.5067 106.703 26.5067C108.011 26.5067 108.6 25.7219 108.6 24.8474C108.6 21.8951 103.369 23.6029 103.369 19.7313C103.369 18.072 104.677 16.9883 106.499 16.9883C108.322 16.9883 109.733 17.8627 109.822 19.9069H108.455C108.337 18.6475 107.544 18.143 106.488 18.143C105.24 18.143 104.695 18.883 104.695 19.6715C104.695 22.28 109.926 20.7403 109.926 24.7727M100.113 25.3519C100.113 26.8654 98.9983 27.6652 97.3647 27.6652C95.7311 27.6652 94.6309 26.9551 94.542 25.3519H95.7755C95.82 26.3161 96.5238 26.6263 97.3609 26.6263C98.1981 26.6263 98.876 26.2563 98.876 25.4416C98.876 23.5282 94.6309 24.8474 94.6309 21.7493C94.6309 20.46 95.5718 19.5108 97.2906 19.5108C98.8612 19.5108 99.9058 20.2956 100.024 21.8241H98.7908C98.7167 20.9048 98.087 20.5497 97.2906 20.5497C96.3941 20.5497 95.8348 20.9645 95.8348 21.7493C95.8348 23.6029 100.11 22.4594 100.11 25.3519M93.4974 19.6603H93.8789V20.8749H93.5714C92.3379 20.8749 91.5304 21.499 91.5304 23.1433V27.5157H90.2968V19.6566H91.5304V21.0654H91.5896C91.8082 20.3554 92.3824 19.6566 93.5011 19.6566M86.1184 20.6058C87.1185 20.6058 87.6594 21.2 87.6742 23.0087H84.4144C84.4329 21.2 85.0738 20.6058 86.1184 20.6058ZM86.1184 19.5071C84.1921 19.5071 83.166 20.901 83.166 23.005V24.1598C83.166 26.3236 84.1958 27.6577 86.1184 27.6577C87.6631 27.6577 88.5743 26.7982 88.8818 25.3295H87.6186C87.4001 26.2339 86.9 26.559 86.1184 26.559C85.0589 26.559 84.4144 25.9498 84.4144 24.085V23.9804H88.9262V23.0013C88.9262 20.8973 88.0446 19.5033 86.1184 19.5033M81.5547 19.6528H82.803L79.3506 30.0308H78.0726L78.9394 27.568L76.4131 19.6528H77.7207L79.5877 25.7742H79.6469L81.5584 19.6528H81.5547ZM73.457 17.134H75.5537V27.512H74.2461V18.5728H74.172L71.5419 25.7929H69.9416L67.3412 18.5728H67.2671V27.512H65.9743V17.1265H68.171L70.764 24.3354H70.8381L73.4607 17.1265L73.457 17.134ZM60.3141 17.134H61.5477V27.512H60.3141V17.1265V17.134ZM57.7619 24.0888C57.7619 25.9573 57.1136 26.5627 56.0579 26.5627C55.0022 26.5627 54.3539 25.9536 54.3539 24.0888V23.0798C54.3539 21.2112 54.9985 20.6058 56.0579 20.6058C57.1173 20.6058 57.7619 21.2149 57.7619 23.0798V24.0888ZM56.0579 19.5071C54.1316 19.5071 53.1056 20.8412 53.1056 23.005V24.1598C53.1056 26.3236 54.1354 27.6577 56.0579 27.6577C57.9804 27.6577 59.0102 26.3236 59.0102 24.1598V23.005C59.0102 20.8412 57.9804 19.5071 56.0579 19.5071ZM50.7348 19.6566H52.4091V20.7553H50.7348V25.0978C50.7348 26.2376 51.0274 26.4768 51.7794 26.4768C51.9831 26.4768 52.2202 26.4469 52.4128 26.4319V27.5007C52.1795 27.5456 51.8683 27.5755 51.6498 27.5755C50.1199 27.5755 49.505 26.9663 49.505 25.2921V20.7553H48.1973V19.6566H49.505V17.1377H50.7385V19.6566H50.7348ZM47.8862 25.3482C47.8862 26.8617 46.7675 27.6614 45.1376 27.6614C43.5077 27.6614 42.4038 26.9514 42.3149 25.3482H43.5484C43.5929 26.3123 44.2967 26.6225 45.1339 26.6225C45.9711 26.6225 46.6489 26.2526 46.6489 25.4379C46.6489 23.5245 42.4001 24.8437 42.4001 21.7456C42.4001 20.4563 43.341 19.5071 45.0598 19.5071C46.6341 19.5071 47.675 20.2919 47.7936 21.8203H46.56C46.486 20.901 45.8562 20.546 45.0598 20.546C44.1633 20.546 43.604 20.9608 43.604 21.7456C43.604 23.5992 47.8788 22.4557 47.8788 25.3482M41.1666 17.8926C41.1666 18.4981 40.8924 18.7821 40.4146 18.7821C39.9367 18.7821 39.6626 18.4981 39.6626 17.8926C39.6626 17.2872 39.9367 16.9845 40.4146 16.9845C40.8924 16.9845 41.1666 17.2872 41.1666 17.8926ZM39.796 19.6566H41.0295V27.5157H39.796V19.6566ZM38.3142 19.6566H38.6958V20.8711H38.3883C37.1548 20.8711 36.3473 21.4952 36.3473 23.1395V27.512H35.1137V19.6528H36.3473V21.0617H36.4065C36.6251 20.3517 37.1992 19.6528 38.3179 19.6528M32.6392 24.5895C32.6392 25.8751 31.6354 26.3535 30.1722 26.3535H28.4904V22.6126H30.1944C31.6354 22.6126 32.6355 23.0947 32.6355 24.4251V24.5895H32.6392ZM28.4904 18.3037H30.0018C31.4427 18.3037 32.1762 18.8531 32.1762 19.8397V19.9443C32.1762 21.1327 31.1575 21.5176 29.8166 21.5176H28.4904V18.3037ZM31.7132 21.9624V21.91C32.7837 21.5401 33.4468 20.8898 33.4468 19.7313V19.5519C33.4468 18.2215 32.3762 17.1303 30.1907 17.1303H27.168V27.5082H30.4092C32.5318 27.5082 33.9913 26.4319 33.9913 24.7054V24.6008C33.9913 23.2554 33.206 22.2688 31.7132 21.9586" fill="#838FA7"/>
<path d="M21.2706 23.5321C21.2706 23.9918 21.6411 24.3618 22.093 24.3618C22.5449 24.3618 22.9154 23.9881 22.9154 23.5321V17.9564C22.9154 17.4967 22.5449 17.1267 22.093 17.1267C21.6411 17.1267 21.2706 17.5005 21.2706 17.9564V23.5321ZM18.6406 22.4409C18.6406 22.9155 19.0221 23.2967 19.4889 23.2967C19.9556 23.2967 20.3372 22.9118 20.3372 22.4409V14.1894C20.3372 13.7148 19.9556 13.3336 19.4889 13.3336C19.0221 13.3336 18.6406 13.7185 18.6406 14.1894V22.4409ZM16.0105 21.8093C16.0105 22.2839 16.3921 22.6651 16.8588 22.6651C17.3256 22.6651 17.7071 22.2802 17.7071 21.8093V12.6161C17.7071 12.1414 17.3256 11.7603 16.8588 11.7603C16.3921 11.7603 16.0105 12.1452 16.0105 12.6161V21.8056V21.8093ZM13.3805 22.0074C13.3805 22.482 13.762 22.8632 14.2288 22.8632C14.6955 22.8632 15.077 22.4783 15.077 22.0074V15.1722C15.077 14.6976 14.6955 14.3164 14.2288 14.3164C13.762 14.3164 13.3805 14.7014 13.3805 15.1722V22.0074ZM15.829 29.7694C15.692 30.0571 15.3993 30.2403 15.0844 30.2403C14.9585 30.2403 14.8363 30.2141 14.7251 30.158C12.1321 28.8874 10.7578 26.6452 10.7578 23.6816V20.3332C10.7578 19.8735 11.1282 19.4998 11.5839 19.4998C12.0395 19.4998 12.4099 19.8735 12.4099 20.3332V23.6816C12.4099 25.9949 13.4323 27.6691 15.4475 28.652C15.8586 28.8538 16.029 29.3546 15.829 29.7694Z" fill="#838FA7"/>
<path d="M142.365 19.7689C141.568 19.7689 140.92 19.115 140.92 18.3115C140.92 17.508 141.568 16.854 142.365 16.854C143.161 16.854 143.809 17.508 143.809 18.3115C143.809 19.115 143.161 19.7689 142.365 19.7689ZM142.365 17.0334C141.664 17.0334 141.098 17.6089 141.098 18.3115C141.098 19.0141 141.668 19.5896 142.365 19.5896C143.061 19.5896 143.631 19.0141 143.631 18.3115C143.631 17.6089 143.061 17.0334 142.365 17.0334Z" fill="#838FA7"/>
<path d="M142.405 18.487H142.109V19.0775H141.846V17.5415H142.383C142.557 17.5415 142.694 17.5826 142.79 17.6611C142.887 17.7396 142.935 17.8554 142.935 18.0049C142.935 18.1095 142.909 18.1955 142.861 18.2628C142.813 18.33 142.742 18.3861 142.657 18.4235L142.998 19.0625V19.0775H142.713L142.409 18.487H142.405ZM142.109 18.2702H142.379C142.468 18.2702 142.538 18.2478 142.587 18.203C142.638 18.1581 142.661 18.0946 142.661 18.0161C142.661 17.9376 142.638 17.8704 142.59 17.8255C142.542 17.7807 142.475 17.7583 142.383 17.7545H142.105V18.2702H142.109Z" fill="#838FA7"/>
</g>
<defs>
<clipPath id="clip0_280_590">
<rect width="133.051" height="18.48" fill="white" transform="translate(10.7578 11.7603)"/>
</clipPath>
</defs>
</svg>
