<svg width="154" height="42" viewBox="0 0 154 42" fill="none" xmlns="http://www.w3.org/2000/svg">
<g clip-path="url(#clip0_280_579)">
<path d="M36.191 17.5893C37.1931 13.9901 41.3666 13.1335 45.2091 13.0277C48.3679 12.9407 51.8899 13.3511 51.8899 13.3511L50.235 19.2951C50.235 19.2951 46.713 18.8847 43.5542 18.9717C39.7117 19.0775 35.5382 19.9341 34.5361 23.5332L36.191 17.5893Z" fill="#838FA7"/>
<path d="M89.3626 11.2607C84.304 11.2608 83.0081 16.0704 82.2829 18.6753L76.8793 38.0803H80.0318L84.8227 20.874H88.097L85.9173 28.7035H89.0699L91.684 19.3141H85.2573C85.5866 18.1306 85.9377 16.8699 86.224 15.8419C86.7526 13.9433 87.616 12.5646 88.8717 12.611C90.2594 12.6622 89.5532 13.5575 89.3631 14.24C89.1002 15.1843 89.81 16.1339 91.0537 16.1339C93.7551 16.1339 94.4212 11.2607 89.3626 11.2607ZM71.4793 14.6562V14.6564L67.5684 28.7035H70.855L72.3032 23.5017H75.158C78.3081 23.5017 80.3986 21.7937 80.9639 19.4195C81.4917 17.2028 80.1738 14.6562 76.6439 14.6562C74.9223 14.6562 73.201 14.6562 71.4793 14.6562ZM74.3058 16.3092H75.5694C76.8923 16.3092 77.942 17.3496 77.6886 19.1603C77.4536 20.8387 75.5984 21.8448 73.9808 21.8448H72.7645L74.3058 16.3092ZM105.472 19.0297C102.708 19.0297 100.715 21.3652 100.237 23.6993C99.7769 25.9422 101.086 28.9228 104.691 28.9228C107.253 28.9228 108.541 27.8146 108.541 27.8146L107.951 26.3846C107.951 26.3846 106.874 27.2459 105.374 27.2459C103.873 27.2459 102.931 26.082 103.14 24.2275H109.268C109.706 23.1353 109.946 19.0297 105.472 19.0297ZM117.688 19.156C115.632 19.156 114.42 21.2412 114.42 21.2412L114.957 19.3142H111.804L109.19 28.7035H112.343C112.343 28.7035 113.102 25.9602 113.488 24.5907C114.085 22.4499 115.301 21.1093 115.886 21.0544C116.562 20.991 116.497 22.5909 117.815 22.5909C119.815 22.5909 120.246 19.156 117.688 19.156H117.688ZM92.8718 19.3142L92.4374 20.8744H96.4334L90.1514 28.7035H99.0225L99.4568 27.1434H94.949L101.231 19.3142H92.8718ZM105.46 20.5801V20.5802C107.174 20.5802 106.784 22.8036 106.784 22.8036L103.35 22.7958C103.35 22.7958 103.92 20.5801 105.46 20.5801Z" fill="#838FA7"/>
<path d="M60.1708 28.7252C48.8654 28.0326 35.7276 22.3038 36.1913 17.5889L34.6315 23.1914C34.1584 28.0019 46.3456 33.7132 58.5159 34.6692L60.1708 28.7252Z" fill="#B1BDD3"/>
<path d="M64.2789 21.0006C63.2769 24.5998 59.1034 25.4563 55.2609 25.5622C52.1021 25.6491 48.5801 25.2388 48.5801 25.2388L50.235 19.2948C50.235 19.2948 53.757 19.7051 56.9158 19.6182C60.7583 19.5123 64.9318 18.6558 65.9338 15.0566L64.2789 21.0006Z" fill="#B1BDD3"/>
<path d="M40.2998 9.8644C51.6052 10.557 64.7431 16.2858 64.2793 21.0007L65.8391 15.3982C66.3123 10.5877 54.1251 4.87637 41.9547 3.92041L40.2998 9.8644Z" fill="#838FA7"/>
</g>
<defs>
<clipPath id="clip0_280_579">
<rect width="84.9265" height="34.16" fill="white" transform="translate(34.5361 3.92041)"/>
</clipPath>
</defs>
</svg>
