<svg width="267" height="425" viewBox="0 0 267 425" fill="none" xmlns="http://www.w3.org/2000/svg">
<path d="M124.598 232.293C115.857 236.136 106.063 238.224 95.2088 238.795C97.1578 226.687 101.713 214.068 108.112 201.688C114.885 189.11 124.917 175.208 138.757 160.508C138.757 160.508 138.758 160.507 138.758 160.507L175.586 121.741H246.998L153.274 211.877L153.273 211.878C142.964 221.849 133.501 228.64 124.61 232.288L124.61 232.288L124.598 232.293ZM78.3055 240.615C85.494 240.615 90.7513 240.38 94.0766 240.132C93.2861 250.59 92.7597 257.793 92.7597 262.206C92.7597 271.888 93.5231 280.359 95.0583 287.136C91.0066 286.691 85.4977 286.691 78.3499 286.691H78.3055H51.388H50.888V287.191V424.5H0.5V0.5H50.888V240.115V240.615H51.388H78.3055ZM111.09 323.491C104.177 311.917 99.3535 300.095 96.3608 288.022C109.362 289.373 121.323 292.484 132.502 296.861C143.838 301.299 153.84 308.615 163.046 318.305L163.05 318.31L265.816 423.974H195.988L140.942 362.337L140.941 362.336C128.173 348.146 118.136 335.286 111.09 323.491Z" stroke="url(#paint0_linear_280_1051)"/>
<defs>
<linearGradient id="paint0_linear_280_1051" x1="257.5" y1="35" x2="91.5" y2="506" gradientUnits="userSpaceOnUse">
<stop stop-color="#798097"/>
<stop offset="1" stop-color="white" stop-opacity="0"/>
</linearGradient>
</defs>
</svg>
