<svg width="1220" height="277" viewBox="0 0 1220 277" fill="none" xmlns="http://www.w3.org/2000/svg">
<g clip-path="url(#clip0_473_98)">
<path d="M0 0H37.7276V181.275H57.4392C62.95 181.275 66.9771 181.064 69.3086 180.853C68.6727 188.881 68.4607 194.586 68.4607 197.755C68.4607 205.361 69.0966 211.699 70.1564 216.981C67.189 216.77 62.95 216.559 57.4392 216.559H37.7276V320.507H0V0ZM78.8464 152.119C83.7213 142.612 91.3516 132.048 101.313 120.85L128.443 91.4828H181.855L112.547 160.148C105.129 167.542 97.9222 172.824 91.3516 175.571C84.7811 178.529 77.3628 180.219 69.3086 180.642C70.7922 171.134 73.9715 161.627 78.8464 152.119ZM102.797 273.603C93.4712 262.828 86.0528 253.11 80.966 244.236C75.8791 235.362 72.2759 226.277 70.1564 216.77C79.9062 217.826 88.8082 220.15 97.0744 223.531C105.341 226.911 112.971 232.404 119.541 239.799L195.208 320.296H143.28L102.797 273.603Z" fill="url(#paint0_linear_473_98)" fill-opacity="0.25"/>
<path d="M189.486 209.587C189.486 190.572 194.149 174.092 203.687 160.57C213.225 146.837 226.366 136.696 243.322 129.724C238.235 144.302 235.056 162.894 233.784 185.078H360.32C360.32 163.528 358.201 145.147 353.75 130.146C369.434 137.119 381.304 147.049 389.57 160.148C397.624 173.036 401.863 188.67 401.863 206.629C401.863 209.587 401.863 211.911 401.651 213.601H233.149C233.361 228.601 234.42 241.912 236.328 253.955C238.024 265.997 240.991 276.772 244.806 286.069C207.926 274.448 189.486 248.884 189.486 209.587ZM297.37 120.005C276.599 120.005 258.583 123.174 243.322 129.513C248.621 114.935 255.828 103.948 265.153 96.7647C274.479 89.5813 285.925 85.9896 299.49 85.9896C326.408 85.9896 344.424 100.568 353.75 129.935C337.429 123.386 318.777 120.005 297.37 120.005ZM244.594 286.069C259.007 290.928 277.871 293.463 300.973 293.463C321.109 293.463 338.913 291.351 354.174 286.914C349.299 299.802 342.304 309.52 332.978 316.07C323.652 322.62 312.631 326 299.914 326C273.632 326 255.192 312.69 244.594 286.069ZM361.168 245.292H402.923C400.379 255.645 394.869 264.307 386.39 271.279C377.912 278.04 367.103 283.322 354.386 286.914C358.413 275.716 360.744 261.772 361.168 245.292Z" fill="url(#paint1_linear_473_98)" fill-opacity="0.25"/>
<path d="M436.199 91.6941H475.199V149.373H475.622C480.921 131.414 489.399 116.202 500.421 104.159C511.442 92.1166 525.431 85.9896 541.752 85.9896C565.702 85.9896 579.903 99.5113 584.354 126.977C573.121 122.963 560.615 120.85 546.627 120.85C535.181 120.85 524.372 122.329 514.622 125.498C504.872 128.668 496.606 132.682 489.823 137.541C483.041 142.401 478.166 147.682 475.199 153.176V320.296H436.199V91.6941ZM585.838 147.471C585.838 140.076 585.414 133.104 584.566 126.977C598.343 131.837 609.153 139.443 616.783 150.218H617.207C623.989 131.414 633.103 115.991 644.549 104.159C655.994 92.1166 669.983 86.2009 686.515 86.2009C710.678 86.2009 724.667 99.7226 729.118 127.189C717.884 123.174 705.379 121.062 691.602 121.062C675.282 121.062 660.657 124.019 647.516 130.146C634.375 136.273 624.625 143.457 618.055 152.119C623.565 162.049 626.321 172.613 626.321 184.233V320.507H585.838V147.471ZM730.602 147.471C730.602 139.654 730.178 132.682 729.118 126.977C741.835 131.414 752.009 138.386 759.639 147.682C767.269 156.979 771.085 169.233 771.085 184.022V320.296H730.814V147.471H730.602Z" fill="url(#paint2_linear_473_98)" fill-opacity="0.25"/>
<path d="M809.023 91.6941H848.023V149.373H848.447C853.745 131.414 862.224 116.202 873.245 104.159C884.267 92.1166 898.256 85.9896 914.576 85.9896C938.527 85.9896 952.727 99.5113 957.178 126.977C945.945 122.963 933.44 120.85 919.451 120.85C908.005 120.85 897.196 122.329 887.446 125.498C877.696 128.668 869.43 132.682 862.647 137.541C855.865 142.401 850.99 147.682 848.023 153.176V320.296H809.023V91.6941ZM958.45 147.471C958.45 140.076 958.026 133.104 957.178 126.977C970.955 131.837 981.765 139.443 989.395 150.218H989.819C996.602 131.414 1005.72 115.991 1017.16 104.159C1028.61 92.1166 1042.6 86.2009 1059.13 86.2009C1083.29 86.2009 1097.28 99.7226 1101.73 127.189C1090.5 123.174 1077.99 121.062 1064.21 121.062C1047.89 121.062 1033.27 124.019 1020.13 130.146C1006.99 136.273 997.237 143.457 990.667 152.119C996.178 162.049 998.933 172.613 998.933 184.233V320.507H958.45V147.471ZM1103.43 147.471C1103.43 139.654 1103 132.682 1101.94 126.977C1114.66 131.414 1124.83 138.386 1132.46 147.682C1140.09 156.979 1143.91 169.233 1143.91 184.022V320.296H1103.64V147.471H1103.43Z" fill="url(#paint3_linear_473_98)" fill-opacity="0.25"/>
<path d="M1180.58 39.5088H1220V72.6792H1180.58V39.5088ZM1180.58 91.6941H1220V320.507H1180.58V91.6941Z" fill="url(#paint4_linear_473_98)" fill-opacity="0.25"/>
</g>
<defs>
<linearGradient id="paint0_linear_473_98" x1="97.6042" y1="0" x2="97.6042" y2="320.507" gradientUnits="userSpaceOnUse">
<stop stop-color="#6B7280"/>
<stop offset="1" stop-color="#A5C3FF" stop-opacity="0"/>
</linearGradient>
<linearGradient id="paint1_linear_473_98" x1="296.205" y1="85.9896" x2="296.205" y2="326" gradientUnits="userSpaceOnUse">
<stop stop-color="#6B7280"/>
<stop offset="1" stop-color="#A5C3FF" stop-opacity="0"/>
</linearGradient>
<linearGradient id="paint2_linear_473_98" x1="603.642" y1="85.9896" x2="603.642" y2="320.507" gradientUnits="userSpaceOnUse">
<stop stop-color="#6B7280"/>
<stop offset="1" stop-color="#A5C3FF" stop-opacity="0"/>
</linearGradient>
<linearGradient id="paint3_linear_473_98" x1="976.466" y1="85.9896" x2="976.466" y2="320.507" gradientUnits="userSpaceOnUse">
<stop stop-color="#6B7280"/>
<stop offset="1" stop-color="#A5C3FF" stop-opacity="0"/>
</linearGradient>
<linearGradient id="paint4_linear_473_98" x1="1200.29" y1="39.5088" x2="1200.29" y2="320.507" gradientUnits="userSpaceOnUse">
<stop stop-color="#6B7280"/>
<stop offset="1" stop-color="#A5C3FF" stop-opacity="0"/>
</linearGradient>
<clipPath id="clip0_473_98">
<rect width="1220" height="277" fill="white"/>
</clipPath>
</defs>
</svg>
