<svg width="213" height="57" viewBox="0 0 213 57" fill="none" xmlns="http://www.w3.org/2000/svg">
<g clip-path="url(#clip0_309_1651)">
<path d="M0 0H6.58687V31.6954H10.0283C10.9904 31.6954 11.6935 31.6585 12.1006 31.6215C11.9896 33.0253 11.9526 34.0227 11.9526 34.5768C11.9526 35.9067 12.0636 37.0149 12.2486 37.9384C11.7305 37.9015 10.9904 37.8646 10.0283 37.8646H6.58687V56.0395H0V0ZM13.7658 26.5975C14.6169 24.9352 15.9491 23.0881 17.6883 21.1303L22.4249 15.9955H31.7502L19.6496 28.0013C18.3544 29.2942 17.0962 30.2178 15.9491 30.698C14.8019 31.2152 13.5068 31.5107 12.1006 31.5846C12.3596 29.9222 12.9147 28.2599 13.7658 26.5975ZM17.9474 47.8386C16.3191 45.9546 15.024 44.2553 14.1359 42.7038C13.2477 41.1523 12.6187 39.5638 12.2486 37.9015C13.9508 38.0862 15.505 38.4925 16.9482 39.0836C18.3914 39.6747 19.7236 40.6351 20.8707 41.9281L34.0815 56.0026H25.0153L17.9474 47.8386Z" fill="#23242E"/>
<path d="M33.082 36.6455C33.082 33.3208 33.8961 30.4394 35.5614 28.0752C37.2266 25.674 39.5209 23.9008 42.4813 22.6818C41.5931 25.2307 41.0381 28.4815 40.816 32.3603H62.9079C62.9079 28.5923 62.5379 25.3785 61.7608 22.7556C64.4992 23.9747 66.5714 25.7109 68.0146 28.0013C69.4208 30.2547 70.1609 32.9883 70.1609 36.1283C70.1609 36.6455 70.1609 37.0518 70.1239 37.3474H40.705C40.742 39.9702 40.9271 42.2974 41.2601 44.4031C41.5561 46.5087 42.0742 48.3927 42.7403 50.0181C36.3015 47.9864 33.082 43.5165 33.082 36.6455ZM51.9175 20.9825C48.291 20.9825 45.1456 21.5366 42.4813 22.6448C43.4064 20.0959 44.6646 18.175 46.2928 16.919C47.921 15.663 49.9192 15.035 52.2876 15.035C56.9872 15.035 60.1326 17.5839 61.7608 22.7187C58.9114 21.5735 55.655 20.9825 51.9175 20.9825ZM42.7033 50.0181C45.2196 50.8678 48.5131 51.3111 52.5466 51.3111C56.062 51.3111 59.1705 50.9417 61.8348 50.1659C60.9837 52.4193 59.7625 54.1186 58.1343 55.2638C56.5061 56.4089 54.5819 57 52.3616 57C47.773 57 44.5535 54.6727 42.7033 50.0181ZM63.056 42.8885H70.3459C69.9019 44.6986 68.9397 46.2132 67.4595 47.4323C65.9794 48.6144 64.0921 49.5379 61.8718 50.1659C62.5749 48.208 62.982 45.7699 63.056 42.8885Z" fill="#23242E"/>
<path d="M76.1562 16.0324H82.9651V26.1173H83.0392C83.9643 22.9773 85.4445 20.3175 87.3687 18.2119C89.293 16.1063 91.7353 15.035 94.5847 15.035C98.7662 15.035 101.246 17.3992 102.023 22.2015C100.061 21.4997 97.8781 21.1302 95.4358 21.1302C93.4375 21.1302 91.5503 21.3888 89.8481 21.9429C88.1458 22.4971 86.7026 23.1989 85.5185 24.0486C84.3343 24.8982 83.4832 25.8218 82.9651 26.7822V56.0026H76.1562V16.0324ZM102.282 25.7848C102.282 24.4919 102.208 23.2728 102.06 22.2015C104.465 23.0512 106.352 24.3811 107.684 26.265H107.758C108.943 22.9773 110.534 20.2806 112.532 18.2119C114.53 16.1063 116.973 15.0719 119.859 15.0719C124.078 15.0719 126.52 17.4361 127.297 22.2385C125.336 21.5366 123.152 21.1672 120.747 21.1672C117.898 21.1672 115.344 21.6844 113.05 22.7556C110.756 23.8269 109.054 25.0829 107.906 26.5975C108.869 28.3337 109.35 30.1808 109.35 32.2125V56.0395H102.282V25.7848ZM127.556 25.7848C127.556 24.418 127.482 23.1989 127.297 22.2015C129.517 22.9773 131.293 24.1963 132.626 25.8218C133.958 27.4472 134.624 29.5897 134.624 32.1756V56.0026H127.593V25.7848H127.556Z" fill="#23242E"/>
<path d="M141.248 16.0324H148.057V26.1173H148.131C149.056 22.9773 150.536 20.3175 152.461 18.2119C154.385 16.1063 156.827 15.035 159.676 15.035C163.858 15.035 166.337 17.3992 167.114 22.2015C165.153 21.4997 162.97 21.1302 160.528 21.1302C158.529 21.1302 156.642 21.3888 154.94 21.9429C153.238 22.4971 151.794 23.1989 150.61 24.0486C149.426 24.8982 148.575 25.8218 148.057 26.7822V56.0026H141.248V16.0324ZM167.336 25.7848C167.336 24.4919 167.262 23.2728 167.114 22.2015C169.52 23.0512 171.407 24.3811 172.739 26.265H172.813C173.997 22.9773 175.589 20.2806 177.587 18.2119C179.585 16.1063 182.027 15.0719 184.914 15.0719C189.132 15.0719 191.575 17.4361 192.352 22.2385C190.39 21.5366 188.207 21.1672 185.802 21.1672C182.953 21.1672 180.399 21.6844 178.105 22.7556C175.811 23.8269 174.108 25.0829 172.961 26.5975C173.923 28.3337 174.404 30.1808 174.404 32.2125V56.0395H167.336V25.7848ZM192.648 25.7848C192.648 24.418 192.574 23.1989 192.389 22.2015C194.609 22.9773 196.385 24.1963 197.717 25.8218C199.05 27.4472 199.716 29.5897 199.716 32.1756V56.0026H192.685V25.7848H192.648Z" fill="#23242E"/>
<path d="M206.117 6.90796H213V12.7077H206.117V6.90796ZM206.117 16.0324H213V56.0395H206.117V16.0324Z" fill="#23242E"/>
</g>
<defs>
<clipPath id="clip0_309_1651">
<rect width="213" height="57" fill="white"/>
</clipPath>
</defs>
</svg>
