<svg width="153" height="42" viewBox="0 0 153 42" fill="none" xmlns="http://www.w3.org/2000/svg">
<g clip-path="url(#clip0_473_240)">
<path d="M132.136 42H20.8636C9.35 42 0 32.5889 0 21C0 9.41111 9.35 0 20.8636 0H132.136C143.65 0 153 9.41111 153 21C153 32.5889 143.65 42 132.136 42Z" fill="#23242E"/>
<path d="M20.9023 5.56104H24.341V22.2444H26.1376C26.6398 22.2444 27.0069 22.2249 27.2194 22.2055C27.1614 22.9444 27.1421 23.4694 27.1421 23.761C27.1421 24.461 27.2001 25.0444 27.2967 25.5305C27.0262 25.511 26.6398 25.4916 26.1376 25.4916H24.341V35.0583H20.9023V5.56104ZM28.0887 19.561C28.533 18.686 29.2285 17.7138 30.1364 16.6833L32.6092 13.9999H37.4773L31.1603 20.3194C30.4842 20.9999 29.8273 21.486 29.2285 21.7388C28.6296 22.011 27.9535 22.1666 27.2194 22.2055C27.3546 21.3305 27.6444 20.436 28.0887 19.561ZM30.2717 30.761C29.4217 29.7694 28.7455 28.8749 28.2819 28.0583C27.8183 27.2416 27.4898 26.4055 27.2967 25.5305C28.1853 25.6277 28.9967 25.8416 29.7501 26.1527C30.5035 26.4638 31.1989 26.9694 31.7978 27.6499L38.6944 35.0583H33.9421L30.2717 30.761Z" fill="white"/>
<path d="M38.1719 24.8501C38.1719 23.1001 38.5969 21.5834 39.4662 20.339C40.3355 19.0945 41.5332 18.1418 43.0787 17.5001C42.6151 18.8418 42.3253 20.5529 42.2094 22.5945H53.7423C53.7423 20.6112 53.5491 18.9195 53.1435 17.539C54.573 18.1807 55.6548 19.0945 56.4082 20.3001C57.1423 21.4862 57.5287 22.9251 57.5287 24.5779C57.5287 24.8501 57.5287 25.064 57.5094 25.2195H42.1514C42.1707 26.6001 42.2673 27.8251 42.4412 28.9334C42.5957 30.0418 42.8662 31.0334 43.2139 31.889C39.8526 30.8195 38.1719 28.4668 38.1719 24.8501ZM48.0048 16.6057C46.1116 16.6057 44.4696 16.8973 43.0787 17.4807C43.5616 16.139 44.2185 15.1279 45.0685 14.4668C45.9185 13.8057 46.9616 13.4751 48.198 13.4751C50.6514 13.4751 52.2935 14.8168 53.1435 17.5195C51.656 16.9168 49.956 16.6057 48.0048 16.6057ZM43.1946 31.889C44.5082 32.3362 46.2276 32.5695 48.3332 32.5695C50.1685 32.5695 51.7912 32.3751 53.1821 31.9668C52.7378 33.1529 52.1003 34.0473 51.2503 34.6501C50.4003 35.2529 49.3957 35.564 48.2366 35.564C45.8412 35.564 44.1605 34.339 43.1946 31.889ZM53.8196 28.1362H57.6253C57.3935 29.089 56.8912 29.8862 56.1185 30.5279C55.3457 31.1501 54.3605 31.6362 53.2014 31.9668C53.5685 30.9362 53.781 29.6723 53.8196 28.1362Z" fill="white"/>
<path d="M60.6582 14.0001H64.2127V19.3084H64.2514C64.7343 17.6557 65.5071 16.2557 66.5116 15.1473C67.5355 14.039 68.7912 13.4751 70.2787 13.4751C72.4616 13.4751 73.7559 14.7195 74.1616 17.2473C73.1377 16.8779 71.998 16.6834 70.723 16.6834C69.6798 16.6834 68.6946 16.8195 67.8059 17.1112C66.9173 17.4029 66.1639 17.7723 65.5457 18.2195C64.9275 18.6668 64.4832 19.1529 64.2127 19.6584V35.039H60.6582V14.0001ZM74.2968 19.1334C74.2968 18.4529 74.2582 17.8112 74.1809 17.2473C75.4366 17.6945 76.4218 18.3945 77.1173 19.3862H77.1559C77.7741 17.6557 78.6048 16.2362 79.648 15.1473C80.6912 14.039 81.9662 13.4945 83.473 13.4945C85.6753 13.4945 86.9503 14.739 87.3559 17.2668C86.3321 16.8973 85.1923 16.7029 83.9366 16.7029C82.4491 16.7029 81.1162 16.9751 79.9184 17.539C78.7207 18.1029 77.8321 18.764 77.2332 19.5612C77.7355 20.4751 77.9866 21.4473 77.9866 22.5168V35.0584H74.2968V19.1334ZM87.4912 19.1334C87.4912 18.414 87.4525 17.7723 87.3559 17.2473C88.515 17.6557 89.4423 18.2973 90.1378 19.1529C90.8332 20.0084 91.1809 21.1362 91.1809 22.4973V35.039H87.5105V19.1334H87.4912Z" fill="white"/>
<path d="M94.6406 14.0001H98.1952V19.3084H98.2338C98.7168 17.6557 99.4895 16.2557 100.494 15.1473C101.518 14.039 102.774 13.4751 104.261 13.4751C106.444 13.4751 107.738 14.7195 108.144 17.2473C107.12 16.8779 105.98 16.6834 104.705 16.6834C103.662 16.6834 102.677 16.8195 101.788 17.1112C100.9 17.4029 100.146 17.7723 99.5281 18.2195C98.9099 18.6668 98.4656 19.1529 98.1952 19.6584V35.039H94.6406V14.0001ZM108.26 19.1334C108.26 18.4529 108.221 17.8112 108.144 17.2473C109.4 17.6945 110.385 18.3945 111.08 19.3862H111.119C111.737 17.6557 112.568 16.2362 113.611 15.1473C114.654 14.039 115.929 13.4945 117.436 13.4945C119.638 13.4945 120.913 14.739 121.319 17.2668C120.295 16.8973 119.155 16.7029 117.9 16.7029C116.412 16.7029 115.079 16.9751 113.882 17.539C112.684 18.1029 111.795 18.764 111.196 19.5612C111.699 20.4751 111.95 21.4473 111.95 22.5168V35.0584H108.26V19.1334ZM121.474 19.1334C121.474 18.414 121.435 17.7723 121.338 17.2473C122.497 17.6557 123.425 18.2973 124.12 19.1529C124.816 20.0084 125.163 21.1362 125.163 22.4973V35.039H121.493V19.1334H121.474Z" fill="white"/>
<path d="M128.504 9.19727H132.097V12.25H128.504V9.19727ZM128.504 14H132.097V35.0584H128.504V14Z" fill="white"/>
</g>
<defs>
<clipPath id="clip0_473_240">
<rect width="153" height="42" fill="white"/>
</clipPath>
</defs>
</svg>
